<?xml version="1.0" standalone="no"?>
<!DOCTYPE svg PUBLIC "-//W3C//DTD SVG 20010904//EN"
 "http://www.w3.org/TR/2001/REC-SVG-20010904/DTD/svg10.dtd">
<svg version="1.0" xmlns="http://www.w3.org/2000/svg"
 width="256.000000pt" height="256.000000pt" viewBox="0 0 256.000000 256.000000"
 preserveAspectRatio="xMidYMid meet">

<g transform="translate(0.000000,256.000000) scale(0.100000,-0.100000)"
fill="#000000" stroke="none">
<path d="M1245 2391 c-85 -21 -134 -102 -114 -188 15 -69 8 -70 -235 -14 -242
55 -267 55 -310 -2 -19 -26 -21 -41 -21 -206 0 -158 2 -180 19 -206 18 -27 19
-46 17 -176 -3 -163 2 -177 60 -165 l31 6 -7 -87 c-12 -144 -29 -195 -118
-354 -67 -119 -99 -318 -62 -389 41 -79 242 -157 476 -185 l57 -7 11 -59 c51
-256 411 -256 462 0 l11 58 84 12 c211 29 394 100 442 171 46 68 19 268 -55
399 -89 159 -106 210 -118 354 l-7 86 37 -6 c26 -4 40 -2 46 8 5 8 9 79 7 159
-1 129 1 148 18 175 17 26 19 48 19 206 0 165 -2 180 -21 206 -43 57 -68 57
-310 2 -243 -56 -250 -55 -235 14 5 20 5 53 1 73 -10 43 -64 102 -100 110 -50
11 -55 12 -85 5z m92 -93 c25 -24 32 -85 11 -106 -7 -7 -37 -12 -68 -12 -65 0
-80 11 -80 59 0 72 84 109 137 59z m-499 -169 c258 -59 237 -51 240 -82 3 -26
1 -27 -42 -27 -54 0 -84 -23 -64 -49 21 -26 31 -31 71 -31 33 0 37 -3 37 -25
0 -27 2 -26 -165 -65 -49 -11 -118 -27 -152 -35 -80 -19 -109 -19 -117 1 -8
21 -8 329 1 337 12 12 52 7 191 -24z m1080 -146 l2 -173 -25 -6 c-14 -3 -47
-1 -73 6 -26 6 -96 22 -156 36 -183 40 -186 42 -186 69 0 22 4 25 36 25 45 0
74 15 74 40 0 25 -29 40 -75 40 -34 0 -36 2 -33 27 3 27 7 28 183 70 99 23
196 41 215 40 l35 -2 3 -172z m-520 3 c2 -81 -1 -112 -10 -118 -7 -4 -59 -8
-114 -8 -84 0 -103 3 -108 16 -12 31 -7 212 7 218 6 2 59 4 117 3 l105 -2 3
-109z m-261 -183 c40 -26 247 -26 287 0 36 24 78 15 111 -25 24 -29 25 -34 25
-178 0 -122 3 -151 16 -164 8 -9 18 -16 20 -16 3 0 43 19 90 42 54 27 87 39
94 32 5 -5 14 -61 20 -124 18 -189 40 -260 120 -386 16 -26 35 -63 41 -82 15
-44 -1 -60 -94 -96 -161 -64 -392 -92 -667 -83 -250 9 -436 44 -559 105 -67
34 -66 48 20 193 67 115 82 173 104 401 7 75 19 87 64 63 27 -14 49 -45 32
-45 -4 0 -11 -48 -15 -107 -8 -127 -28 -210 -62 -264 -29 -47 -30 -65 -3 -79
15 -9 24 -8 35 1 14 12 48 71 54 94 2 6 9 25 17 43 14 33 30 149 35 247 3 43
6 50 24 50 49 0 54 17 54 175 0 135 2 150 21 174 36 46 75 56 116 29z m-203
-35 c-4 -7 -10 -65 -13 -130 l-6 -118 -30 16 c-91 50 -80 49 -146 14 l-60 -31
3 103 3 102 35 8 c19 5 44 11 55 13 44 11 141 32 153 34 8 0 10 -4 6 -11z
m771 -7 c42 -10 88 -19 143 -28 l32 -5 0 -104 0 -104 -59 30 -60 31 -56 -26
c-31 -15 -58 -25 -59 -24 -2 2 -6 59 -9 127 -5 111 -4 122 11 118 10 -3 35 -9
57 -15z m-1064 -1010 c300 -135 1005 -134 1288 3 30 14 58 23 62 20 5 -3 9
-32 9 -65 0 -52 -3 -63 -27 -85 -31 -29 -83 -54 -158 -77 -164 -50 -267 -61
-540 -61 -202 0 -259 3 -360 22 -185 33 -320 85 -345 132 -12 23 -13 140 -1
140 4 0 37 -13 72 -29z m799 -365 c0 -42 -28 -92 -67 -119 -98 -68 -250 -1
-252 111 l-1 32 160 0 160 0 0 -24z"/>
<path d="M1776 944 c-9 -8 -16 -19 -16 -24 0 -5 7 -16 16 -24 8 -9 19 -16 24
-16 5 0 16 7 24 16 9 8 16 19 16 24 0 5 -7 16 -16 24 -8 9 -19 16 -24 16 -5 0
-16 -7 -24 -16z"/>
<path d="M1615 904 c-17 -17 -18 -24 -7 -40 24 -35 82 -11 62 26 -14 25 -37
32 -55 14z"/>
<path d="M1455 860 c-18 -20 -18 -21 1 -41 36 -35 81 5 48 42 -22 24 -27 24
-49 -1z"/>
</g>
</svg>
